Coordinates
version=1
nRows=8
nColumns=60
inDegrees=yes

Units are S.I. units (second, meters, Newtons, ...)
If the header above contains a line with 'inDegrees', this indicates whether rotational values are in degrees (yes) or radians (no).

endheader
time	pelvis_tilt	pelvis_list	pelvis_rotation	pelvis_tx	pelvis_ty	pelvis_tz	hip_flexion_r	hip_adduction_r	hip_rotation_r	knee_angle_r_beta	knee_angle_r	ankle_angle_r	subtalar_angle_r	mtp_angle_r	hip_flexion_l	hip_adduction_l	hip_rotation_l	knee_angle_l_beta	knee_angle_l	ankle_angle_l	subtalar_angle_l	mtp_angle_l	L5_S1_Flex_Ext	L5_S1_Lat_Bending	L5_S1_axial_rotation	L4_L5_Flex_Ext	L4_L5_Lat_Bending	L4_L5_axial_rotation	L3_L4_Flex_Ext	L3_L4_Lat_Bending	L3_L4_axial_rotation	L2_L3_Flex_Ext	L2_L3_Lat_Bending	L2_L3_axial_rotation	L1_L2_Flex_Ext	L1_L2_Lat_Bending	L1_L2_axial_rotation	L1_T12_Flex_Ext	L1_T12_Lat_Bending	L1_T12_axial_rotation	Abs_r3	Abs_r2	Abs_r1	Abs_t1	Abs_t2	arm_flex_r	arm_add_r	arm_rot_r	elbow_flex_r	pro_sup_r	wrist_flex_r	wrist_dev_r	arm_flex_l	arm_add_l	arm_rot_l	elbow_flex_l	pro_sup_l	wrist_flex_l	wrist_dev_l
     15.72000000	      0.73144655	     11.07229993	     89.97721087	      0.40198925	      0.94546976	      0.27695286	     -0.87567746	     -4.48220533	      0.87376808	      0.29223770	    -16.74398688	      7.79546662	      0.00000000	      0.00000000	     -1.27349949	     -6.37205008	     -3.11134707	      0.27056645	    -15.50231593	      9.29885860	      0.00000000	      0.00000000	     -6.17382324	      0.10557221	      0.24342511	    -11.46540714	      0.14041104	      0.25863918	    -10.14297421	      0.25668827	      0.25863918	     -7.05606258	      0.25668827	      0.21299697	     -5.73301226	      0.21528285	      0.19778290	     -3.52772260	      0.16353135	      0.18256883	    -44.09900204	      1.19425395	      1.35385741	      0.00000000	      0.00000000	     62.00369014	    -22.08860711	     21.40708378	     53.46386279	     56.46347292	      4.16819204	     24.02562438	     70.39685820	    -20.95717540	     38.64095620	     43.45050805	     44.78490034	      3.12469682	     18.85518682
     15.73000000	      0.74325365	     10.81025401	     89.90187364	      0.40181236	      0.94538454	      0.27777662	     -0.56349983	     -4.48591415	      1.04359268	      0.29062332	    -16.65148966	      7.60680261	      0.00000000	      0.00000000	     -1.00063741	     -6.35208403	     -3.08561652	      0.26853755	    -15.38606798	      9.15819569	      0.00000000	      0.00000000	     -6.19577743	      0.10238540	      0.24613387	    -11.50617826	      0.13617259	      0.26151724	    -10.17904273	      0.24893987	      0.26151724	     -7.08115402	      0.24893987	      0.21536714	     -5.75339892	      0.20878431	      0.19998377	     -3.54026722	      0.15859499	      0.18460041	    -44.25581857	      1.15820415	      1.36892277	      0.00000000	      0.00000000	     63.10881869	    -21.66348802	     21.77909367	     52.01557952	     57.04851840	      4.24247070	     23.84831091	     71.33791742	    -20.58583025	     39.15372734	     42.23002351	     45.04874255	      3.03759819	     18.71890121
     15.74000000	      0.75546940	     10.57507930	     89.82379321	      0.40160144	      0.94529729	      0.27848455	     -0.30454761	     -4.49297908	      1.14238200	      0.28834316	    -16.52084629	      7.46379175	      0.00000000	      0.00000000	     -0.78255809	     -6.33109506	     -3.09567649	      0.26610389	    -15.24662962	      9.04166133	      0.00000000	      0.00000000	     -6.21191024	      0.09783470	      0.25309642	    -11.53613851	      0.13012015	      0.26891495	    -10.20554734	      0.23787530	      0.26891495	     -7.09959222	      0.23787530	      0.22145937	     -5.76837985	      0.19950453	      0.20564084	     -3.54948551	      0.15154595	      0.18982232	    -44.37105367	      1.10672572	      1.40764638	      0.00000000	      0.00000000	     64.24450651	    -21.31878627	     22.52473257	     50.22343786	     55.93376926	      5.62994322	     21.65584990	     72.23201284	    -20.10602013	     39.76019320	     40.81017253	     43.98648791	      3.38418414	     17.11421709
     15.75000000	      0.74473297	     10.31079122	     89.73503462	      0.40142011	      0.94519411	      0.27917683	      0.02262681	     -4.51877210	      1.37022455	      0.28736309	    -16.46469213	      7.21945517	      0.00000000	      0.00000000	     -0.52872158	     -6.27776513	     -3.01974814	      0.26406157	    -15.12961348	      8.84808413	      0.00000000	      0.00000000	     -6.23546444	      0.09146493	      0.27260785	    -11.57988101	      0.12164836	      0.28964585	    -10.24424453	      0.22238783	      0.28964585	     -7.12651231	      0.22238783	      0.23853187	     -5.79025228	      0.18651528	      0.22149388	     -3.56294438	      0.14167918	      0.20445589	    -44.53929894	      1.03466957	      1.51616311	      0.00000000	      0.00000000	     65.19523295	    -20.98423667	     22.66624638	     48.95737788	     55.96249374	      5.63070406	     21.62605928	     73.02098437	    -19.60984054	     39.89650180	     39.76922250	     43.99034030	      3.30528474	     17.07518404
     15.76000000	      0.74045104	     10.07983450	     89.67404341	      0.40124222	      0.94511205	      0.27970640	      0.26567659	     -4.53785725	      1.44754335	      0.28524073	    -16.34309000	      7.11201677	      0.00000000	      0.00000000	     -0.32990232	     -6.24910730	     -3.05810437	      0.26137536	    -14.97570481	      8.73476126	      0.00000000	      0.00000000	     -6.25800973	      0.08705048	      0.27749571	    -11.62174987	      0.11577714	      0.29483919	    -10.28128419	      0.21165453	      0.29483919	     -7.15227932	      0.21165453	      0.24280874	     -5.81118784	      0.17751333	      0.22546526	     -3.57582676	      0.13484119	      0.20812178	    -44.70033770	      0.98473241	      1.54334786	      0.00000000	      0.00000000	     66.17315633	    -20.60226466	     23.02090951	     47.56922403	     56.02999058	      5.68622325	     21.49316671	     73.82729230	    -19.14044095	     40.20690482	     38.51221959	     44.04262357	      3.26121756	     16.96951503
     15.77000000	      0.74412576	      9.89948002	     89.62465630	      0.40103482	      0.94509256	      0.28013677	      0.43969169	     -4.55017285	      1.48571666	      0.28302947	    -16.21639428	      7.02309276	      0.00000000	      0.00000000	     -0.18788605	     -6.22707740	     -3.08167642	      0.25889012	    -14.83331137	      8.65724680	      0.00000000	      0.00000000	     -6.28888767	      0.08493039	      0.28102785	    -11.67909329	      0.11295742	      0.29859209	    -10.33201355	      0.20649975	      0.29859209	     -7.18756972	      0.20649975	      0.24589937	     -5.83986109	      0.17319005	      0.22833513	     -3.59347041	      0.13155718	      0.21077089	    -44.92089572	      0.96074957	      1.56299261	      0.00000000	      0.00000000	     67.12768192	    -20.30169687	     23.50103229	     46.29528568	     56.13173181	      5.89756690	     21.07585792	     74.60329038	    -18.75046793	     40.65978837	     37.36454233	     44.13830384	      3.34335235	     16.67539837
     15.78000000	      0.76166387	      9.68040278	     89.56579507	      0.40086622	      0.94504008	      0.28053976	      0.67383925	     -4.53711377	      1.62930900	      0.28150225	    -16.12889098	      6.81340024	      0.00000000	      0.00000000	      0.00668468	     -6.21785670	     -3.01062230	      0.25686173	    -14.71709329	      8.49673080	      0.00000000	      0.00000000	     -6.31700997	      0.08248921	      0.29765557	    -11.73131921	      0.10971065	      0.31625905	    -10.37821567	      0.20056427	      0.31625905	     -7.21971069	      0.20056427	      0.26044863	     -5.86597545	      0.16821200	      0.24184515	     -3.60953949	      0.12777579	      0.22324168	    -45.12177048	      0.93313448	      1.65547101	      0.00000000	      0.00000000	     67.96872057	    -20.09245149	     23.79633666	     45.19587164	     56.18690206	      6.03903692	     20.77673084	     75.28513204	    -18.34007429	     40.92769168	     36.47857347	     44.19858137	      3.41078162	     16.46935035
     15.79000000	      0.78331555	      9.47308331	     89.53428703	      0.40064783	      0.94498274	      0.28081580	      0.86245442	     -4.52571793	      1.67366026	      0.27923315	    -15.99888081	      6.69427644	      0.00000000	      0.00000000	      0.19492310	     -6.21680882	     -2.98817347	      0.25522361	    -14.62323569	      8.40226648	      0.00000000	      0.00000000	     -6.34092747	      0.08395131	      0.30953373	    -11.77573640	      0.11165524	      0.32887959	    -10.41750973	      0.20411921	      0.32887959	     -7.24704600	      0.20411921	      0.27084202	     -5.88818524	      0.17119351	      0.25149616	     -3.62320595	      0.13004058	      0.23215030	    -45.29261079	      0.94967400	      1.72153377	      0.00000000	      0.00000000	     68.81576150	    -19.88025905	     24.24342443	     44.02128477	     56.26225171	      6.22302793	     20.42506183	     75.93600040	    -17.92331352	     41.29187548	     35.48867721	     44.29095048	      3.51605034	     16.23569270
